<?xml version="1.0" encoding="UTF-8"?>
<!DOCTYPE svg PUBLIC "-//W3C//DTD SVG 1.1//EN" "http://www.w3.org/Graphics/SVG/1.1/DTD/svg11.dtd">
<!-- Creator: CorelDRAW X8 -->
<svg xmlns="http://www.w3.org/2000/svg" xml:space="preserve" width="77.964mm" height="41.0431mm" version="1.1" style="shape-rendering:geometricPrecision; text-rendering:geometricPrecision; image-rendering:optimizeQuality; fill-rule:evenodd; clip-rule:evenodd"
viewBox="0 0 1373 723"
 xmlns:xlink="http://www.w3.org/1999/xlink">
 <defs>
  <style type="text/css">
   <![CDATA[
    .fil0 {fill:#FEFEFE}
   ]]>
  </style>
 </defs>
 <g id="Logo_x0020_Solo_x0020_Letra">
  <metadata id="CorelCorpID_0Corel-Layer"/>
  <path class="fil0" d="M80 0l1213 0c44,0 80,36 80,80l0 563c0,44 -36,80 -80,80l-1213 0c-44,0 -80,-36 -80,-80l0 -563c0,-44 36,-80 80,-80zm-27 450l-25 0 0 -39 34 0 12 -53 -46 0 0 -39 55 0 16 -69 43 0 -15 69 41 0 16 -69 44 0 -17 69 26 0 0 39 -35 0 -12 53 47 0 0 39 -56 0 -17 70 -42 0 16 -70 -42 0 -16 70 -43 0 16 -70zm64 -92l-12 53 42 0 12 -53 -42 0zm345 157l-53 0 -75 -175 -39 175 -53 0 58 -261 53 0 75 175 39 -175 53 0 -58 261zm240 -57l-110 0 -34 57 -59 0 156 -261 65 0 45 261 -54 0 -9 -57zm-7 -44l-17 -105 -61 105 78 0zm326 101l-53 0 -75 -175 -39 175 -53 0 58 -261 53 0 75 175 39 -175 53 0 -58 261zm239 -57l-109 0 -34 57 -59 0 156 -261 65 0 45 261 -54 0 -10 -57zm-6 -44l-17 -105 -61 105 78 0z"/>
 </g>
</svg>
