<?xml version="1.0" encoding="UTF-8"?>
<!DOCTYPE svg PUBLIC "-//W3C//DTD SVG 1.1//EN" "http://www.w3.org/Graphics/SVG/1.1/DTD/svg11.dtd">
<!-- Creator: CorelDRAW X8 -->
<svg xmlns="http://www.w3.org/2000/svg" xml:space="preserve" width="73.5696mm" height="15.3276mm" version="1.1" style="shape-rendering:geometricPrecision; text-rendering:geometricPrecision; image-rendering:optimizeQuality; fill-rule:evenodd; clip-rule:evenodd"
viewBox="0 0 1173 244"
 xmlns:xlink="http://www.w3.org/1999/xlink">
 <defs>
  <style type="text/css">
   <![CDATA[
    .fil0 {fill:#FEFEFE;fill-rule:nonzero}
   ]]>
  </style>
 </defs>
 <g id="Logo_x0020_Solo_x0020_Letra">
  <metadata id="CorelCorpID_0Corel-Layer"/>
  <path class="fil0" d="M23 182l-23 0 0 -36 31 0 11 -48 -42 0 0 -35 50 0 15 -63 39 0 -15 63 38 0 14 -63 40 0 -15 63 23 0 0 35 -31 0 -11 48 42 0 0 36 -51 0 -14 62 -39 0 15 -62 -38 0 -15 62 -39 0 15 -62zm58 -84l-11 48 38 0 11 -48 -38 0zm312 142l-48 0 -68 -158 -35 158 -48 0 52 -236 48 0 68 158 35 -158 48 0 -52 236zm217 -52l-100 0 -30 52 -53 0 141 -236 58 0 41 236 -49 0 -8 -52zm-6 -39l-15 -96 -56 96 71 0zm295 91l-48 0 -68 -158 -35 158 -48 0 52 -236 48 0 68 158 35 -158 48 0 -52 236zm217 -52l-100 0 -30 52 -54 0 142 -236 58 0 41 236 -49 0 -8 -52zm-6 -39l-15 -96 -56 96 71 0z"/>
 </g>
</svg>
